<?xml version="1.0" encoding="utf-8"?>
<svg version="1.1" xmlns="http://www.w3.org/2000/svg" xmlns:xlink="http://www.w3.org/1999/xlink" x="0px"
	 y="0px" viewBox="0 0 269.29 269.29" style="enable-background:new 0 0 269.29 269.29;" xml:space="preserve">
<style type="text/css">
	.st0{opacity:0.8;fill:#0C0C0D;}
</style>
<path class="st0" d="M14.17,19.84v102.05c0,3.13,2.54,5.67,5.67,5.67h17.01c3.13,0,5.67-2.54,5.67-5.67V42.52h40.17
	c1.5,0,2.95,0.6,4.01,1.66l10.85,10.85c1.06,1.06,1.66,2.51,1.66,4.01v23.65c0,1.5-0.6,2.95-1.66,4.01L86.7,97.55
	c-1.06,1.06-2.51,1.66-4.01,1.66H62.36c-3.13,0-5.67,2.54-5.67,5.67v17.01c0,3.13,2.54,5.67,5.67,5.67h34.5
	c1.5,0,2.95-0.6,4.01-1.66l25.03-25.03c1.06-1.06,1.66-2.51,1.66-4.01v-52c0-1.5-0.6-2.95-1.66-4.01l-25.03-25.03
	c-1.06-1.06-2.51-1.66-4.01-1.66H19.84C16.71,14.17,14.17,16.71,14.17,19.84z"/>
<path class="st0" d="M141.73,147.4v102.05c0,3.13,2.54,5.67,5.67,5.67h17.01c3.13,0,5.67-2.54,5.67-5.67V147.4
	c0-3.13-2.54-5.67-5.67-5.67H147.4C144.27,141.73,141.73,144.27,141.73,147.4z"/>
<path class="st0" d="M189.35,148.54l16.16,21.54L225.07,144c1.07-1.43,2.75-2.27,4.54-2.27h19.84c3.13,0,5.67,2.54,5.67,5.67v102.05
	c0,3.13-2.54,5.67-5.67,5.67h-17.01c-3.13,0-5.67-2.54-5.67-5.67v-58.11l-16.8,24.63c-2.19,3.21-6.89,3.32-9.22,0.21l-15.37-20.49
	c-0.74-0.98-1.13-2.17-1.13-3.4v-42.05C184.25,147.51,187.72,146.36,189.35,148.54z"/>
<path class="st0" d="M141.73,19.84v17.01c0,3.13,2.54,5.67,5.67,5.67h36.85v56.69H147.4c-3.13,0-5.67,2.54-5.67,5.67v17.01
	c0,3.13,2.54,5.67,5.67,5.67h102.05c3.13,0,5.67-2.54,5.67-5.67v-17.01c0-3.13-2.54-5.67-5.67-5.67H212.6V42.52h36.85
	c3.13,0,5.67-2.54,5.67-5.67V19.84c0-3.13-2.54-5.67-5.67-5.67H147.4C144.27,14.17,141.73,16.71,141.73,19.84z"/>
<path class="st0" d="M14.17,147.4v17.01c0,3.13,2.54,5.67,5.67,5.67h36.85v79.37c0,3.13,2.54,5.67,5.67,5.67h17.01
	c3.13,0,5.67-2.54,5.67-5.67v-79.37h36.85c3.13,0,5.67-2.54,5.67-5.67V147.4c0-3.13-2.54-5.67-5.67-5.67H19.84
	C16.71,141.73,14.17,144.27,14.17,147.4z"/>
</svg>
